name 900006_13Moments.mot
datacolumns 7
datarows 74
range 0.12500000 0.73333335
endheader

                time	          RHipMoment	          LHipMoment	         RKneeMoment	         LKneeMoment	        RAnkleMoment	        LAnkleMoment	
          0.12500000	       -292.82803345	        727.76007080	         65.79380798	        238.46769714	        -21.74699402	         -3.79219937	
          0.13333334	       -243.03547668	        679.12286377	         49.32542038	        260.51147461	        -23.57487869	         10.74682331	
          0.14166667	       -199.62493896	        632.50012207	         35.65433502	        276.23089600	        -24.07646561	         23.26227379	
          0.15000001	       -167.77091980	        582.18188477	         28.01557159	        288.72164917	        -23.20167160	         38.16124344	
          0.15833333	       -152.85928345	        536.73913574	         27.98325348	        299.46414185	        -21.16327477	         49.68799591	
          0.16666667	       -149.54211426	        504.17404175	         33.08785629	        298.08871460	        -18.36829567	         65.56732178	
          0.17500000	       -148.10301208	        473.57534790	         39.98302078	        291.49816895	        -15.37905979	         82.82129669	
          0.18333334	       -143.87414551	        433.93563843	         46.05988693	        289.70700073	        -12.73109150	         96.36808014	
          0.19166666	       -136.08250427	        404.37567139	         49.34077454	        276.24539185	        -10.72516251	        115.49201202	
          0.20000000	       -124.56586456	        375.62033081	         48.44556046	        260.90213013	         -9.42029762	        135.61541748	
          0.20833334	       -112.15928650	        343.90951538	         44.23847961	        245.86935425	         -8.70318317	        153.86349487	
          0.21666667	       -101.88334656	        306.91995239	         38.33853912	        229.11502075	         -8.33572960	        173.65368652	
          0.22499999	        -96.07219696	        266.37826538	         31.35427475	        205.95242310	         -8.07243729	        197.53456116	
          0.23333333	        -93.90647125	        215.17486572	         22.94481659	        190.11396790	         -7.79767323	        216.64122009	
          0.24166667	        -88.94110107	        176.78782654	         12.72595119	        164.08065796	         -7.54207659	        240.93498230	
          0.25000000	        -77.11243439	        143.49633789	          0.71723288	        134.18809509	         -7.34149456	        268.28466797	
          0.25833333	        -59.28197479	        105.09291077	        -11.87814522	        113.32415009	         -7.14304876	        289.95516968	
          0.26666668	        -39.97175598	         82.49812317	        -22.76162338	         88.43796539	         -6.96112776	        315.04635620	
          0.27500001	        -26.31252861	         83.48313904	        -29.47692490	         60.79845810	         -6.95111275	        340.95553589	
          0.28333333	        -20.29475403	         94.57313538	        -31.72619629	         34.32537460	         -7.15962553	        365.97720337	
          0.29166666	        -16.96328354	        103.77005005	        -32.27788925	          8.12064934	         -7.49019289	        393.26202393	
          0.30000001	        -14.17239189	        112.66917419	        -33.26687622	        -22.97954941	         -7.92906427	        427.27157593	
          0.30833334	         -9.28440189	        105.55897522	        -35.78062057	        -44.23540115	         -8.53769875	        457.67596436	
          0.31666666	          1.00847709	         93.79707336	        -41.09924316	        -65.23397064	         -9.25351715	        488.45675659	
          0.32499999	         14.52555180	         82.90610504	        -48.75528717	        -91.81988525	         -9.87953949	        523.57489014	
          0.33333334	         27.46794319	         61.49068451	        -56.91765976	       -112.22365570	        -10.29536724	        556.65039063	
          0.34166667	         33.11716843	         46.75397491	        -63.06245422	       -135.60887146	        -10.60088253	        592.56866455	
          0.34999999	         28.58541679	         38.66007233	        -66.33274841	       -162.51283264	        -10.92303467	        632.46185303	
          0.35833332	         22.85481834	         24.96244049	        -69.74662018	       -186.60282898	        -11.21686840	        674.14666748	
          0.36666667	         22.98768616	          4.84813547	        -75.34146881	       -206.96417236	        -11.41252041	        715.79541016	
          0.37500000	         30.83968925	         -3.29960990	        -83.36263275	       -236.70570374	        -11.56773472	        763.67291260	
          0.38333336	         45.57698441	        -29.70019150	        -93.53467560	       -255.17500305	        -11.71343803	        807.93090820	
          0.39166668	         63.10221481	        -59.98522186	       -104.35043335	       -272.57928467	        -11.75824070	        853.29669189	
          0.40000001	         82.37683105	        -91.65505219	       -114.88262177	       -289.51034546	        -11.58697510	        899.27014160	
          0.40833333	        104.56590271	       -125.21200562	       -125.17372894	       -304.77774048	        -11.15005207	        943.35693359	
          0.41666669	        128.58158875	       -172.34812927	       -135.23313904	       -308.46948242	        -10.49259090	        985.17437744	
          0.42500001	        155.09120178	       -197.44458008	       -145.81056213	       -319.80340576	         -9.63762665	       1029.44042969	
          0.43333334	        186.52301025	       -219.87486267	       -157.78143311	       -323.72332764	         -8.54429436	       1068.21618652	
          0.44166666	        223.80749512	       -226.39739990	       -171.21931458	       -327.42919922	         -7.23529291	       1107.27978516	
          0.45000002	        263.58203125	       -219.44367981	       -185.04786682	       -335.20693970	         -5.80866337	       1151.82348633	
          0.45833334	        298.29446411	       -244.54429626	       -196.90419006	       -319.99536133	         -4.36183786	       1189.06262207	
          0.46666667	        323.43045044	       -278.98141479	       -205.31544495	       -299.10675049	         -3.01114821	       1226.75158691	
          0.47499999	        335.53546143	       -315.80422974	       -208.91677856	       -274.66986084	         -1.93054020	       1260.68518066	
          0.48333335	        327.00540161	       -360.75451660	       -204.81248474	       -242.34014893	         -1.35137093	       1285.04895020	
          0.49166667	        218.17568970	       -410.73727417	       -129.24401855	       -202.13734436	        -18.91322136	       1297.81274414	
          0.50000000	         80.49407959	       -436.74163818	          0.13732472	       -169.44810486	        -62.18988037	       1303.18859863	
          0.50833333	        442.73037720	       -452.96154785	       -154.51548767	       -128.39614868	        -59.96527863	       1289.09887695	
          0.51666665	        829.05072021	       -457.13397217	       -302.91345215	        -83.26423645	        -65.44557953	       1255.17785645	
          0.52499998	        891.64929199	       -437.11959839	       -265.96881104	        -48.07868576	        -95.40705872	       1208.06262207	
          0.53333330	        567.06030273	       -428.06442261	        -41.38089371	         -1.23794341	       -135.17591858	       1138.74682617	
          0.54166669	        261.40945435	       -421.44787598	        168.28872681	         49.49360657	       -164.62568665	       1050.17797852	
          0.55000001	        331.79489136	       -427.37011719	        190.33599854	        104.78464508	       -160.21258545	        944.35467529	
          0.55833334	        458.34280396	       -429.84677124	        192.70179749	        151.69221497	       -157.80984497	        822.96502686	
          0.56666666	        471.49612427	       -427.90081787	        243.13800049	        190.01385498	       -157.69677734	        684.15063477	
          0.57499999	        492.10321045	       -380.46560669	        273.29284668	        186.36775208	       -146.62088013	        540.83312988	
          0.58333331	        524.73242188	       -348.81527710	        297.33328247	        175.49555969	       -134.93246460	        388.10110474	
          0.59166664	        549.40051270	       -299.87847900	        315.51452637	        138.30436707	       -120.98580170	        240.89363098	
          0.59999996	        556.61584473	       -290.68429565	        327.47164917	        103.60993195	       -106.62157440	        116.09171295	
          0.60833335	        539.46136475	       -362.83590698	        335.31750488	        116.82072449	        -92.83901215	         25.05714989	
          0.61666667	        510.35913086	       -410.64538574	        335.83410645	        141.65661621	        -79.38771820	        -18.73610687	
          0.62500000	        480.16073608	       -298.35864258	        328.41613770	         81.75635529	        -66.25450134	        -27.36619949	
          0.63333333	        455.91217041	       -274.15310669	        312.41616821	         85.99168396	        -53.50381470	        -27.88257217	
          0.64166665	        435.49945068	       -240.16026306	        291.36682129	         86.19570923	        -42.27242279	        -26.42886543	
          0.65000004	        424.58255005	       -205.61042786	        262.54537964	         83.59963989	        -29.09273148	        -23.48012924	
          0.65833336	        410.39965820	       -179.70031738	        229.87435913	         80.01017761	        -14.57095242	        -19.80180550	
          0.66666669	        383.68975830	       -162.31811523	        200.20037842	         74.56272888	          1.08681428	        -16.22505188	
          0.67500001	        355.26553345	       -150.43402100	        173.42796326	         67.16156006	         18.29763985	        -13.34295464	
          0.68333334	        335.86679077	       -144.05735779	        147.04695129	         59.24316788	         38.35033798	        -11.48008156	
          0.69166666	        324.68869019	       -143.20480347	        121.52387238	         51.92578506	         59.61565018	        -10.64642525	
          0.69999999	        311.51187134	       -143.28637695	         98.38300323	         44.86777115	         84.27426910	        -10.40988731	
          0.70833331	        294.22665405	       -136.96688843	         78.57198334	         36.75111008	        114.15640259	        -10.22607422	
          0.71666670	        278.94400024	       -122.80636597	         60.17883682	         28.15178108	        146.52593994	         -9.78895950	
          0.72500002	        259.34362793	       -104.05155182	         43.00527573	         20.42943573	        180.48356628	         -9.05419922	
          0.73333335	        242.79270935	        -82.66452026	         21.36785507	         12.92997074	        217.70596313	         -8.24406719	
